<svg xmlns="http://www.w3.org/2000/svg" width="64" height="64" viewBox="0 0 64 64" role="img" aria-label="CarapuzLand" color="#e2e8f0">
  <rect width="64" height="64" rx="14" fill="#08101d"/>
  <g fill="none" stroke="currentColor" stroke-linecap="round" stroke-linejoin="round" stroke-width="4">
    <path d="M12 47c9-6 31-6 40 0"/>
    <path d="M17 54c8 3 22 3 30 0" opacity=".7"/>
    <path d="M27 45c2-15 9-24 21-31"/>
    <path d="M34 16c-8-4-18-1-23 7 11 0 19 4 24 12"/>
    <path d="M37 15c7-7 17-7 25-1-9 2-15 8-19 17"/>
    <path d="M39 23c9-1 17 2 22 9-9 3-17 1-24-5"/>
  </g>
</svg>
